<svg width="24" height="24" viewBox="0 0 24 24" fill="none" xmlns="http://www.w3.org/2000/svg">
<path d="M17.8368 17.8368C17.8368 17.8368 15.1968 14.7552 14.3232 13.728C14.2272 13.6128 14.1888 13.4496 14.2272 13.3056C14.256 13.2288 14.3136 13.1328 14.3712 13.0752L14.7744 12.624L19.2768 17.8272H17.8464L17.8368 17.8368ZM15.0528 17.8368L11.7888 14.0256L11.6256 13.8144C11.472 13.632 11.472 13.3632 11.6352 13.1808L17.7216 6.0864H19.2288L13.104 13.0848C12.9408 13.2576 12.9408 13.536 13.0944 13.7088L16.6272 17.8176H15.0528V17.8368ZM11.2512 12.24C9.9936 13.6992 6.4512 17.8368 6.4512 17.8368H4.8768L9.696 12.2496C9.8496 12.0672 9.8496 11.808 9.696 11.6256L4.9152 6.0864H6.432L11.2416 11.6736C11.3664 11.8368 11.3856 12.0768 11.2512 12.2304V12.24ZM11.1936 15.408L10.7232 15.9552L9.1104 17.8368H7.6512L10.7424 14.2368C10.7424 14.2368 11.088 14.6496 11.2032 14.784C11.3568 14.9664 11.3568 15.2352 11.1936 15.408ZM9.0912 6.096C9.0912 6.096 11.6832 9.1968 12.624 10.1568C12.7776 10.3104 12.7488 10.5024 12.6144 10.6656C12.1152 11.2512 12.1056 11.2608 12.1056 11.2608L7.6512 6.096H9.1104H9.0912ZM12.9792 8.5248L13.4496 7.9776L15.0624 6.096H16.5216L13.4304 9.696C13.4304 9.696 13.0848 9.2832 12.9696 9.1488C12.816 8.9664 12.816 8.6976 12.9792 8.5248ZM12 0C5.376 0 0 5.376 0 12C0 18.624 5.376 24 12 24C18.624 24 24 18.624 24 12C24 5.376 18.624 0 12 0Z" fill="black"/>
</svg>
